<?xml version="1.0" encoding="UTF-8"?>
<svg xmlns="http://www.w3.org/2000/svg" xmlns:xlink="http://www.w3.org/1999/xlink" viewBox="0 0 24 24" width="24px" height="24px">
<g id="surface101060122">
<path style=" stroke:none;fill-rule:nonzero;fill:rgb(100%,100%,100%);fill-opacity:1;" d="M 22.5 4.945312 C 21.714844 5.285156 20.921875 5.539062 20.050781 5.621094 C 20.921875 5.117188 21.628906 4.265625 21.972656 3.339844 C 21.101562 3.84375 20.226562 4.183594 19.265625 4.355469 C 18.386719 3.511719 17.25 3 16.023438 3 C 13.664062 3 11.734375 4.863281 11.734375 7.148438 C 11.734375 7.480469 11.734375 7.820312 11.824219 8.082031 C 7.3125 8.082031 4.21875 5.539062 2.121094 3 C 1.683594 3.589844 1.503906 4.355469 1.503906 5.117188 C 1.503906 6.550781 2.296875 7.824219 3.433594 8.585938 C 2.730469 8.503906 2.035156 8.332031 1.503906 8.082031 C 1.503906 8.082031 1.503906 8.082031 1.503906 8.164062 C 1.503906 10.195312 2.996094 11.882812 4.921875 12.222656 C 4.570312 12.304688 4.21875 12.394531 3.777344 12.394531 C 3.519531 12.394531 3.257812 12.394531 2.996094 12.3125 C 3.519531 14.003906 5.964844 15.949219 7.886719 15.949219 C 6.398438 17.046875 5.015625 18 2.25 18 C 1.898438 18 2.179688 18 1.5 18 C 3.421875 19.183594 5.703125 19.5 8.0625 19.5 C 16.027344 19.5 20.316406 13.15625 20.316406 7.652344 C 20.316406 7.484375 20.316406 7.320312 20.316406 7.148438 C 21.1875 6.550781 21.890625 5.796875 22.5 4.945312 "/>
</g>
</svg>
